<?xml version="1.0" encoding="UTF-8" standalone="no"?>
<!DOCTYPE svg PUBLIC "-//W3C//DTD SVG 1.1//EN" "http://www.w3.org/Graphics/SVG/1.1/DTD/svg11.dtd">
<svg width="100%" height="100%" viewBox="0 0 100 100" version="1.1"
    xmlns="http://www.w3.org/2000/svg" xmlns:xlink="http://www.w3.org/1999/xlink"
    xml:space="preserve" xmlns:serif="http://www.serif.com/">
    <path fill="rgb(129, 140, 248)" d="M50,0C22.397,0 0,22.397 0,50C0,77.603 22.397,100 50,100C77.549,100 100,77.603 100,50C100,22.397 77.549,0 50,0ZM83.026,23.048C88.991,30.315 92.571,39.588 92.679,49.62C91.269,49.349 77.169,46.475 62.961,48.265C62.636,47.56 62.364,46.8 62.039,46.041C61.171,43.981 60.195,41.866 59.219,39.859C74.946,33.46 82.104,24.241 83.026,23.048ZM50,7.375C60.846,7.375 70.77,11.443 78.308,18.113C77.549,19.197 71.095,27.82 55.911,33.514C48.915,20.662 41.161,10.141 39.968,8.514C43.167,7.755 46.529,7.375 50,7.375ZM31.833,11.388C32.972,12.907 40.564,23.482 47.668,36.063C27.712,41.377 10.087,41.269 8.189,41.269C10.954,28.037 19.902,17.028 31.833,11.388ZM7.267,50.054L7.267,48.753C9.111,48.807 29.827,49.078 51.139,42.679C52.386,45.065 53.525,47.505 54.609,49.946C54.067,50.109 53.471,50.271 52.928,50.434C30.911,57.538 19.197,76.952 18.221,78.579C11.443,71.041 7.267,61.009 7.267,50.054ZM50,92.733C40.13,92.733 31.02,89.371 23.807,83.731C24.566,82.158 33.243,65.456 57.321,57.05C57.429,56.996 57.484,56.996 57.592,56.941C63.612,72.505 66.052,85.575 66.703,89.317C61.551,91.54 55.911,92.733 50,92.733ZM73.807,85.412C73.373,82.809 71.096,70.336 65.51,54.989C78.905,52.874 90.618,56.345 92.082,56.833C90.239,68.709 83.406,78.959 73.807,85.412Z"/>
</svg>