<?xml version="1.0" encoding="UTF-8" standalone="no"?>
<!DOCTYPE svg PUBLIC "-//W3C//DTD SVG 1.1//EN" "http://www.w3.org/Graphics/SVG/1.1/DTD/svg11.dtd">
<svg width="100%" height="100%" viewBox="0 0 18 24" version="1.1" xmlns="http://www.w3.org/2000/svg"
    xmlns:xlink="http://www.w3.org/1999/xlink" xml:space="preserve"
    xmlns:serif="http://www.serif.com/"
    style="fill-rule:evenodd;clip-rule:evenodd;stroke-linejoin:round;stroke-miterlimit:2;">
    <g transform="matrix(1,0,0,1,-23.8916,-0.744935)">
        <path fill="rgb(129, 140, 248)" d="M32.106,1.584C32.99,1.047 33.99,0.745 35.048,0.745C38.663,0.745 41.598,4.276 41.598,8.625C41.598,9.704 41.418,10.733 41.09,11.67C41.567,12.755 41.837,13.986 41.837,15.292C41.837,19.641 38.844,23.172 35.158,23.172C34.746,23.172 34.343,23.128 33.952,23.043C32.918,23.973 31.668,24.517 30.321,24.517C26.772,24.517 23.892,20.742 23.892,16.092C23.892,14.435 24.258,12.889 24.889,11.585C24.721,10.898 24.63,10.173 24.63,9.424C24.63,5.074 27.67,1.543 31.414,1.543C31.647,1.543 31.878,1.557 32.106,1.584ZM32.638,20.009C32.616,20.032 32.597,20.056 32.597,20.1C32.097,20.6 31.397,21 30.697,21L30.497,21C29.097,21 27.897,19.9 27.797,18.4L27.797,18.3C27.797,17.8 27.697,16.9 27.797,15.9C27.797,15.2 27.897,14.1 27.897,14.1C27.897,13.4 28.197,12.8 28.597,12.3C28.197,11.5 28.097,10.6 28.297,9.6L28.297,9.4C28.397,8.8 28.497,7.9 28.897,7C29.597,5.7 30.897,5 32.397,5L33.097,5C33.597,4.6 34.197,4.3 34.897,4.3C36.397,4.3 37.597,5.6 37.597,7.1L37.597,7.2L37.59,7.2C37.59,7.211 37.59,7.221 37.59,7.232C37.59,7.336 37.385,11.287 37.385,11.287C37.375,11.468 37.341,11.648 37.283,11.821C37.244,11.94 37.194,12.057 37.136,12.17C37.771,12.904 38.197,13.893 38.197,15.23C38.197,16.471 37.529,17.909 36.468,18.8C36.326,18.921 36.178,19.035 36.027,19.14C36.017,19.127 36.007,19.113 35.997,19.1C35.197,19.6 34.197,19.9 33.297,19.9L32.697,19.9C32.697,19.944 32.678,19.968 32.657,19.991L32.638,20.009ZM32.497,12C31.797,11.9 31.397,11.4 31.597,10L31.597,9.8C31.797,8.6 31.897,8.3 32.497,8.3C32.697,8.3 32.897,8.4 33.097,8.6C33.297,8.8 33.697,9.1 33.897,9.7C34.097,10.1 34.097,10.4 34.197,10.7L34.197,11.1C34.197,11.3 34.397,11.5 34.697,11.6C34.997,11.7 35.297,11.4 35.397,11.1C35.397,11.1 35.597,7.3 35.597,7.2C35.597,6.9 35.297,6.6 34.997,6.6C34.697,6.6 34.397,6.9 34.397,7.2L34.397,8.3C33.897,7.8 33.297,7.3 32.597,7.3C30.697,7 30.497,8.7 30.397,9.7L30.397,9.9C30.197,11.8 30.797,13 32.297,13.3C33.897,13.6 34.997,13.9 34.997,14.9C34.997,15.3 34.797,15.7 34.397,16C33.997,16.4 33.397,16.5 32.797,16.4C32.597,16.4 32.497,16.3 32.297,16.3C32.097,16.2 31.497,15.9 31.297,15.5C31.197,15.1 31.097,14.6 31.097,14.3L31.097,14.1C31.097,13.8 30.797,13.5 30.497,13.5C30.197,13.5 29.897,13.8 29.897,14.1C29.897,14.1 29.897,15.3 29.797,16C29.697,17.2 29.797,18.1 29.797,18.2C29.797,18.5 30.097,18.8 30.397,18.8C30.697,18.8 30.997,18.5 30.997,18.2L30.997,17.1C31.397,17.4 31.997,17.7 32.697,17.8C33.597,18 34.497,17.7 35.197,17.1C35.797,16.6 36.197,15.8 36.197,15.1C36.197,12.6 33.697,12.2 32.497,12Z"/>
    </g>
</svg>