<svg width="28" height="28" viewBox="0 0 7.408 7.408" xmlns="http://www.w3.org/2000/svg"><path d="M3.704.09a3.704 3.704 0 00-1.17 7.22c.185.033.252-.081.252-.18l-.005-.63c-1.03.224-1.248-.496-1.248-.496-.168-.428-.411-.542-.411-.542-.336-.23.025-.225.025-.225.372.026.568.382.568.382.33.566.867.402 1.078.308.033-.24.129-.403.235-.496-.823-.093-1.687-.411-1.687-1.83 0-.405.144-.735.381-.994-.038-.094-.165-.47.036-.98 0 0 .311-.1 1.019.379a3.547 3.547 0 011.854 0c.708-.48 1.018-.38 1.018-.38.202.51.075.887.037.98.237.26.38.59.38.995 0 1.423-.865 1.736-1.69 1.827.132.115.25.34.25.686 0 .495-.004.895-.004 1.016 0 .1.067.215.255.179A3.706 3.706 0 003.704.09" fill="#fff" fill-rule="evenodd"/></svg>