<svg width="28" height="28" xmlns="http://www.w3.org/2000/svg"><path class="cls-2" d="M8.805 25.376c10.566 0 16.345-8.754 16.345-16.345 0-.249 0-.496-.016-.743A11.688 11.688 0 0028 5.315a11.467 11.467 0 01-3.3.904 5.765 5.765 0 002.526-3.178 11.512 11.512 0 01-3.648 1.395 5.75 5.75 0 00-9.79 5.24 16.309 16.309 0 01-11.84-6.003 5.749 5.749 0 001.779 7.669 5.702 5.702 0 01-2.608-.72v.073a5.747 5.747 0 004.61 5.632 5.736 5.736 0 01-2.595.098 5.751 5.751 0 005.367 3.99 11.527 11.527 0 01-7.134 2.464 11.694 11.694 0 01-1.368-.083 16.264 16.264 0 008.806 2.576" fill="#fff"/></svg>