<?xml version="1.0" encoding="UTF-8" standalone="no"?>
<svg width="100%" height="100%" viewBox="0 0 64 64" version="1.1" xmlns="http://www.w3.org/2000/svg"
    xmlns:xlink="http://www.w3.org/1999/xlink" xml:space="preserve"
    xmlns:serif="http://www.serif.com/"
>
    <path fill="rgb(129, 140, 248)" d="M59.26,0.002L4.724,0.002C2.12,0.002 0,2.068 0,4.612L0,59.38C0,61.93 2.12,64 4.724,64L59.264,64C61.874,64 64,61.93 64,59.38L64,4.612C64,2.068 61.874,0.002 59.26,0.002ZM24.952,23.994L24.938,23.994L24.952,23.988L24.952,23.994L34.042,23.994L34.042,28.168L34.168,28.168C35.436,25.768 38.532,23.236 43.168,23.236C52.78,23.236 54.554,29.562 54.554,37.784L54.554,54.536L45.068,54.536L45.068,39.68C45.068,36.14 45.004,31.58 40.136,31.58C35.196,31.58 34.436,35.44 34.436,39.42L34.436,54.528L24.952,54.528L24.952,23.994ZM9.49,23.994L19,23.994L19,54.534L9.49,54.534L9.49,23.994ZM14.238,8.794C17.272,8.794 19.738,11.26 19.738,14.294C19.738,17.328 17.272,19.8 14.24,19.8C11.222,19.793 8.74,17.312 8.732,14.294L8.732,14.294C8.732,11.277 11.215,8.794 14.232,8.794C14.234,8.794 14.236,8.794 14.238,8.794Z" style="fill-rule:nonzero;"/>
</svg>