<?xml version="1.0" encoding="UTF-8" standalone="no"?>
<!DOCTYPE svg PUBLIC "-//W3C//DTD SVG 1.1//EN" "http://www.w3.org/Graphics/SVG/1.1/DTD/svg11.dtd">
<svg width="100%" height="100%" viewBox="0 0 800 800" version="1.1" xmlns="http://www.w3.org/2000/svg" xmlns:xlink="http://www.w3.org/1999/xlink" xml:space="preserve" xmlns:serif="http://www.serif.com/" style="fill-rule:evenodd;clip-rule:evenodd;stroke-linejoin:round;stroke-miterlimit:2;">
    <g transform="matrix(33.3333,0,0,33.3333,0,0)">
        <path d="M14,2C15.105,2 16,2.895 16,4C16,5.447 17.03,6.662 18.398,6.94C19.481,7.16 20.18,8.216 19.96,9.298C19.74,10.381 18.684,11.08 17.602,10.86C17.041,10.746 16.504,10.565 16,10.325L16,16C16,19.314 13.314,22 10,22C6.686,22 4,19.314 4,16C4,13.201 5.914,10.855 8.501,10.189C9.571,9.914 10.662,10.558 10.937,11.628C11.212,12.697 10.568,13.788 9.499,14.063C8.635,14.285 8,15.071 8,16C8,17.105 8.895,18 10,18C11.105,18 12,17.105 12,16L12,4C12,2.895 12.895,2 14,2Z" style="fill:rgb(129,140,248);"/>
    </g>
</svg>
